<?xml version="1.0" encoding="UTF-8"?>
<svg version="1.1" xmlns="http://www.w3.org/2000/svg" width="2094" height="2094">
<path d="M0 0 C1.77265667 0.03591999 3.54520122 0.07761173 5.31762695 0.12353516 C6.29472122 0.14477448 7.27181549 0.16601379 8.27851868 0.18789673 C11.4544432 0.25803194 14.63015422 0.33515795 17.8059082 0.41259766 C19.77269446 0.45733787 21.73949136 0.50161253 23.70629883 0.54541016 C28.11429927 0.64441977 32.52224982 0.74538384 36.93017578 0.84765625 C38.21284332 0.87736511 39.49551086 0.90707397 40.81704712 0.93768311 C43.90037155 1.00918058 46.98368036 1.08132618 50.06698608 1.15362549 C79.56166059 1.84252552 109.05475892 2.35535531 138.5559082 2.66259766 C140.14472557 2.6796129 140.14472557 2.6796129 141.76564026 2.69697189 C184.29764253 3.1498098 226.80333758 2.85577591 269.33207893 2.25375366 C286.26158584 2.01562546 303.18746234 1.97309272 320.1184082 2.03759766 C320.1184082 1.37759766 320.1184082 0.71759766 320.1184082 0.03759766 C345.1984082 0.03759766 370.2784082 0.03759766 396.1184082 0.03759766 C396.1184082 0.69759766 396.1184082 1.35759766 396.1184082 2.03759766 C396.72900211 2.036268 397.33959602 2.03493834 397.96869278 2.03356838 C411.79055279 2.00771419 425.60756818 2.06946293 439.42817307 2.25318718 C502.00878699 3.07308596 564.54049217 2.98505891 627.1184082 2.03759766 C628.66042036 2.01458277 630.20243288 1.99159181 631.7444458 1.96862793 C655.3979729 1.61434063 679.04389584 1.12752053 702.68725586 0.34448242 C712.5053877 0.02640461 722.29555674 -0.04494731 732.1184082 0.03759766 C732.1184082 7.95759766 732.1184082 15.87759766 732.1184082 24.03759766 C728.13542412 24.70142834 724.53186033 25.20483013 720.5480957 25.43212891 C684.62682296 27.38578433 684.62682296 27.38578433 654.34887695 44.87744141 C632.25761522 72.22586416 638.82061373 120.47279965 638.85695887 153.23644698 C638.86152931 159.34374209 638.85447691 165.45102624 638.84899902 171.55831909 C638.84065997 182.80416399 638.84132574 194.04998718 638.84682196 205.2958316 C638.85187856 215.69504709 638.85315472 226.09425468 638.85077667 236.49347115 C638.8506239 237.18670967 638.85047113 237.8799482 638.85031373 238.59419396 C638.84969091 241.40927477 638.8490541 244.22435558 638.8483942 247.03943638 C638.84229153 273.38866262 638.84779761 299.73787515 638.858588 326.08709927 C638.86806798 349.4134609 638.86723613 372.73980067 638.85766602 396.06616211 C638.84691514 422.35754037 638.84273397 448.64890654 638.84889054 474.9402867 C638.84953183 477.75265189 638.85015752 480.56501708 638.85077667 483.37738228 C638.85093483 484.06970446 638.85109298 484.76202663 638.85125593 485.47532827 C638.85351473 495.85282268 638.85090057 506.23030826 638.84581757 516.60780144 C638.84005306 528.43458745 638.84181375 540.26135268 638.85237905 552.08813714 C638.85758015 558.1056854 638.85978958 564.12318975 638.85308075 570.14073753 C638.83182505 591.01337905 638.81214649 611.86033081 640.02130127 632.70436096 C640.0807595 633.73824273 640.0807595 633.73824273 640.1414189 634.793011 C642.9762442 682.38488155 652.6232326 734.18516016 689.1184082 767.85009766 C722.27005632 795.61123388 769.21476651 797.13288173 810.19262695 793.73291016 C852.58937473 789.79367551 894.1799798 772.86891821 921.8684082 739.53759766 C923.29661787 737.71324224 924.71332219 735.87982154 926.1184082 734.03759766 C927.22442383 732.63767578 927.22442383 732.63767578 928.3527832 731.20947266 C943.81914184 711.26320324 954.6882398 688.07822083 962.1184082 664.03759766 C962.40135742 663.13477051 962.68430664 662.23194336 962.97583008 661.30175781 C973.58731863 626.95622165 978.80879044 591.27668066 981.8059082 555.53759766 C981.86693726 554.84097015 981.92796631 554.14434265 981.99084473 553.42660522 C985.13489044 516.83893634 984.27090872 479.85723287 984.25370824 443.17449281 C984.25139188 438.09680647 984.25115169 433.01912348 984.25222397 427.94143677 C984.2523772 427.20727816 984.25253043 426.47311956 984.25268831 425.71671373 C984.25300818 424.22317751 984.2533324 422.7296413 984.2536609 421.23610508 C984.2564879 407.34717408 984.25327457 393.45824975 984.24786054 379.56931984 C984.24341021 367.7911643 984.24415925 356.01301864 984.2487793 344.23486328 C984.25420137 330.4065297 984.25619792 316.57820194 984.25316703 302.74986744 C984.25284865 301.25818189 984.25253428 299.76649634 984.25222397 298.27481079 C984.25206969 297.54178079 984.25191542 296.80875078 984.25175647 296.05350775 C984.2509127 291.02194759 984.25232685 285.99039134 984.25470352 280.95883179 C984.26684941 252.69773472 984.18461367 224.44318518 983.66088867 196.18603516 C983.6305697 194.52141393 983.6305697 194.52141393 983.59963822 192.82316399 C984.45918678 117.31628458 984.45918678 117.31628458 951.1184082 53.03759766 C931.52417812 36.38935322 904.7803208 30.82467334 880.17773438 26.61254883 C876.13806466 25.85335785 872.13091731 24.92926635 868.1184082 24.03759766 C868.1184082 16.11759766 868.1184082 8.19759766 868.1184082 0.03759766 C875.96708142 0.03759766 883.74682313 0.11824666 891.5793457 0.43994141 C893.81761106 0.52645394 896.05589316 0.61253401 898.29418945 0.69824219 C899.46546387 0.74354065 900.63673828 0.78883911 901.84350586 0.83551025 C924.59977309 1.70580429 947.34876522 2.30914419 970.1184082 2.66259766 C971.3946405 2.68297089 972.6708728 2.70334412 973.98577881 2.72433472 C990.69751399 2.98577192 1007.40471421 3.09180874 1024.1184082 3.03759766 C1024.1184082 2.04759766 1024.1184082 1.05759766 1024.1184082 0.03759766 C1047.2184082 0.03759766 1070.3184082 0.03759766 1094.1184082 0.03759766 C1094.1184082 0.69759766 1094.1184082 1.35759766 1094.1184082 2.03759766 C1094.82496048 2.03465195 1095.53151276 2.03170624 1096.25947571 2.02867126 C1114.04153449 1.96632976 1131.81806158 2.07731959 1149.59887695 2.29150391 C1207.16911822 2.97320497 1264.68549046 3.02898658 1322.25268555 2.11437988 C1326.86673659 2.04111148 1331.48084138 1.97194179 1336.0949707 1.90380859 C1359.93534448 1.54975813 1383.77024452 1.11624655 1407.60107422 0.34448242 C1417.11471743 0.04205952 1426.60044 -0.04892933 1436.1184082 0.03759766 C1436.1184082 7.95759766 1436.1184082 15.87759766 1436.1184082 24.03759766 C1432.22460025 24.68656565 1428.69374432 25.19793493 1424.80200195 25.43212891 C1390.50111562 27.22106959 1390.50111562 27.22106959 1361.1184082 43.03759766 C1360.48290039 43.63314453 1359.84739258 44.22869141 1359.19262695 44.84228516 C1338.65278618 66.04186385 1342.96570423 108.38370684 1342.98469543 135.69216919 C1342.98282422 138.26035053 1342.98052229 140.82853158 1342.97783011 143.39671218 C1342.97271201 148.95287025 1342.97125261 154.50901963 1342.97228622 160.06517982 C1342.97381957 168.32808688 1342.96963092 176.5909844 1342.9644116 184.85388959 C1342.95476942 200.47475812 1342.95192854 216.09562336 1342.95135454 231.71649452 C1342.950894 243.78441483 1342.94883051 255.85233386 1342.94565392 267.92025375 C1342.9447563 271.40104703 1342.94386648 274.88184031 1342.94297904 278.36263359 C1342.94264747 279.66083798 1342.94264747 279.66083798 1342.94230919 280.98526872 C1342.93615999 305.31011577 1342.93220813 329.63496239 1342.93265247 353.95981026 C1342.93266805 354.87583867 1342.93268363 355.79186708 1342.93269968 356.73565393 C1342.93278278 361.37787815 1342.93288182 366.02010237 1342.93298439 370.66232659 C1342.93300433 371.58419715 1342.93302428 372.50606771 1342.93304483 373.45587374 C1342.93308527 375.32011807 1342.93312706 377.18436241 1342.93317022 379.04860674 C1342.93378283 408.04624415 1342.92627704 437.04386985 1342.91259766 466.04150391 C1342.89721519 498.66234013 1342.88863272 531.28316867 1342.88956088 563.90400875 C1342.8896355 567.38668815 1342.88968421 570.86936756 1342.88971519 574.35204697 C1342.88972685 575.20949456 1342.8897385 576.06694215 1342.88975051 576.950373 C1342.8897812 590.7080383 1342.88341408 604.46569339 1342.87478293 618.22335566 C1342.866279 632.06510235 1342.86533789 645.90683421 1342.87189225 659.74858208 C1342.8755695 667.95536173 1342.87381055 676.16209611 1342.86394991 684.3688709 C1342.8571882 690.51991573 1342.86105251 696.67091311 1342.86882313 702.82195579 C1342.87034954 705.29289196 1342.86857482 707.76383313 1342.86296306 710.2347634 C1341.3461935 749.79203025 1341.3461935 749.79203025 1357.8684082 783.85009766 C1374.59111934 795.10576862 1398.07642832 793.22474515 1417.48144531 793.22290039 C1420.05005347 793.22509266 1422.61823435 793.24335856 1425.18676758 793.26220703 C1463.47958468 793.39481511 1492.51643962 779.32498498 1522.1184082 756.03759766 C1522.67931152 755.59673828 1523.24021484 755.15587891 1523.81811523 754.70166016 C1532.38941388 747.8674021 1540.16444724 740.19384034 1547.9309082 732.47509766 C1548.41923126 731.99213226 1548.90755432 731.50916687 1549.41067505 731.01156616 C1556.1099111 724.36815825 1562.25840615 717.43386464 1568.1184082 710.03759766 C1569.14352798 708.78317276 1570.1705895 707.53032962 1571.20043945 706.27978516 C1578.61893152 697.1674947 1585.51352364 687.75448515 1592.1184082 678.03759766 C1592.56506836 677.38130371 1593.01172852 676.72500977 1593.47192383 676.04882812 C1628.14668063 624.69166055 1650.62182245 567.5679349 1663.1184082 507.03759766 C1672.3584082 507.03759766 1681.5984082 507.03759766 1691.1184082 507.03759766 C1690.89054362 512.27848307 1690.66267904 517.51936849 1690.43481445 522.76025391 C1690.39077484 523.81090027 1690.34673523 524.86154663 1690.30136108 525.94403076 C1690.17616247 528.84477544 1690.02900962 531.743725 1689.87342834 534.64299011 C1689.04278005 550.80659497 1688.96961082 566.95681967 1688.9840827 583.13707829 C1688.98666032 586.93389513 1688.984255 590.73070988 1688.98269653 594.52752686 C1688.98089473 600.87431279 1688.98323287 607.22108696 1688.98803711 613.56787109 C1688.99352311 620.8999573 1688.991678 628.23201587 1688.9862107 635.56410146 C1688.98167835 641.89747074 1688.98102822 648.2308317 1688.98364937 654.56420207 C1688.98520545 658.33159639 1688.98542328 662.09897768 1688.98211288 665.86637115 C1688.97869679 670.04227864 1688.98342559 674.21813783 1688.98901367 678.39404297 C1688.98698944 679.63752502 1688.98496521 680.88100708 1688.98287964 682.16217041 C1688.98710937 683.86022827 1688.98710937 683.86022827 1688.99142456 685.59259033 C1688.99180159 686.57761158 1688.99217861 687.56263283 1688.99256706 688.5775032 C1689.0155051 691.17447209 1689.0155051 691.17447209 1690.1184082 694.03759766 C1699.26803617 674.43724783 1708.39312465 654.83124087 1717.1184082 635.03759766 C1722.81564483 622.11880365 1728.66439282 609.27758144 1734.6184082 596.47509766 C1735.01943756 595.61260406 1735.42046692 594.75011047 1735.83364868 593.86148071 C1737.43690883 590.41370625 1739.04035212 586.96601705 1740.64411926 583.51847839 C1744.55851416 575.09976782 1748.44316715 566.66762627 1752.3059082 558.22509766 C1752.63025848 557.51637512 1752.95460876 556.80765259 1753.28878784 556.07745361 C1758.68109806 544.28373803 1763.9458736 532.43550188 1769.18661499 520.57382202 C1774.15627812 509.33495177 1779.28922615 498.18495863 1784.54592896 487.07778931 C1789.56391235 476.46652387 1794.38250536 465.77749912 1799.1184082 455.03759766 C1804.43811743 442.97376214 1809.9050021 430.9955678 1815.5456543 419.07861328 C1820.56370254 408.46706466 1825.38239114 397.77775815 1830.1184082 387.03759766 C1835.14628245 375.63557448 1840.2874439 364.30114363 1845.6184082 353.03759766 C1850.8607187 341.95910239 1855.92366243 330.81450812 1860.8684082 319.60009766 C1866.66768768 306.45099902 1872.6178482 293.37967235 1878.6809082 280.35009766 C1879.28432541 279.05324539 1879.28432541 279.05324539 1879.89993286 277.73019409 C1880.30082123 276.86862701 1880.70170959 276.00705994 1881.11474609 275.11938477 C1886.68153322 263.15378936 1892.18252473 251.16058633 1897.62866211 239.13964844 C1898.23460281 237.80223869 1898.84055983 236.46483635 1899.4465332 235.12744141 C1899.74582733 234.46677673 1900.04512146 233.80611206 1900.35348511 233.12542725 C1902.56967668 228.23741322 1904.80164729 223.35677509 1907.0402832 218.47900391 C1914.19291416 202.8891883 1921.25438462 187.26565577 1928.18551636 171.57601929 C1933.15691589 160.33338039 1938.29269234 149.1801983 1943.54995728 138.06872559 C1948.47751404 127.64527718 1953.21720832 117.14954888 1957.8684082 106.60009766 C1964.52785686 91.49655983 1971.40643037 76.50232277 1978.38500977 61.54370117 C1983.72792276 50.08511497 1988.95885639 38.57993006 1994.1184082 27.03759766 C1986.36686229 27.15690511 1978.61541669 27.28165972 1970.86401367 27.40991211 C1968.23610338 27.45278465 1965.60817365 27.49448466 1962.98022461 27.53491211 C1934.19644711 27.76490819 1934.19644711 27.76490819 1905.5559082 30.35009766 C1904.59958496 30.48053467 1903.64326172 30.61097168 1902.65795898 30.74536133 C1840.8358468 39.51332728 1780.97163195 69.23107148 1742.1184082 119.03759766 C1741.32950195 120.02115234 1740.5405957 121.00470703 1739.7277832 122.01806641 C1706.22502026 164.15173504 1690.28977756 214.32906582 1680.78515625 266.59863281 C1679.97802889 270.76164855 1679.03830985 274.89804024 1678.1184082 279.03759766 C1669.2084082 279.03759766 1660.2984082 279.03759766 1651.1184082 279.03759766 C1651.2627832 276.27384766 1651.4071582 273.51009766 1651.5559082 270.66259766 C1651.74935884 266.7878763 1651.93464778 262.91278988 1652.1184082 259.03759766 C1652.16310242 258.10525299 1652.20779663 257.17290833 1652.25384521 256.21231079 C1653.13428135 237.34048667 1653.31898466 218.48773717 1653.3059082 199.60009766 C1653.30578861 198.82988029 1653.30566902 198.05966293 1653.30554581 197.26610565 C1653.29384259 137.26999498 1651.34798886 77.16995845 1646.7532959 17.34413147 C1646.3189962 11.55492608 1646.01556921 5.8431245 1646.1184082 0.03759766 C1657.28723449 -0.09621416 1668.43842005 0.11574244 1679.6027832 0.43994141 C1680.66750225 0.47085247 1680.66750225 0.47085247 1681.75373077 0.502388 C1684.74920681 0.58974313 1687.74466374 0.67772362 1690.74010086 0.7664032 C1779.23527339 3.38090505 1867.71988599 3.26538261 2199.35253906 0.69824219 C2200.9169991 0.66529131 2200.9169991 0.66529131 2202.51306438 0.63167477 C2207.23441118 0.53146711 2211.95564208 0.42819827 2216.67674255 0.31697083 C2225.21312359 0.12010676 2233.74817538 -0.01350765 2242.28686523 -0.05004883 C2243.15666456 -0.05691491 2244.02646389 -0.06378099 2244.92262077 -0.07085514 C2246.98819764 -0.07371838 2249.05373213 -0.02346539 2251.1184082 0.03759766 C2253.87248074 2.79167019 2253.16339379 9.72893519 2253.25927734 13.47167969 C2252.79576288 28.42641266 2244.88598174 41.47007204 2238.32885742 54.56396484 C2235.22245157 60.79902657 2232.3781837 67.14944737 2229.5305481 73.50567627 C2227.99891794 76.91760036 2226.44864331 80.32102649 2224.8996582 83.72509766 C2224.5910939 84.40400055 2224.2825296 85.08290344 2223.96461487 85.78237915 C2220.02734818 94.44358609 2216.06659036 103.09405985 2212.1081543 111.74560547 C2207.26299414 122.33604262 2202.43360878 132.93350666 2197.6184082 143.53759766 C2192.13390918 155.61562553 2186.62715041 167.68330463 2181.1081543 179.74560547 C2175.95154865 191.01679284 2170.81320608 202.29613399 2165.69015503 213.58261108 C2162.20169394 221.2677636 2158.70475228 228.94883477 2155.18481445 236.61962891 C2153.84993026 239.52967112 2152.51527452 242.43981794 2151.1809082 245.35009766 C2150.84946808 246.07290924 2150.51802795 246.79572083 2150.17654419 247.54043579 C2144.70388019 259.48419223 2139.36012408 271.48187171 2134.05130005 283.49917603 C2129.08124903 294.73876532 2123.94793847 305.88950091 2118.69088745 316.99740601 C2113.67290405 327.60867144 2108.85431104 338.29769619 2104.1184082 349.03759766 C2099.09053396 360.43962084 2093.9493725 371.77405169 2088.6184082 383.03759766 C2083.37609922 394.11608973 2078.31305371 405.26064531 2073.3684082 416.47509766 C2067.63342695 429.47955992 2061.74549988 442.40426856 2055.7434082 455.28759766 C2049.03153485 469.69594262 2042.43538892 484.1503248 2035.93884277 498.65698242 C2030.00947262 511.89286677 2023.96456754 525.07134127 2017.86138916 538.22787476 C2012.09166513 550.67344035 2006.4734848 563.17911102 2000.93621826 575.72961426 C1996.00665624 586.89413178 1990.91115574 597.96750812 1985.69033813 608.99850464 C1980.67254512 619.60940531 1975.85414507 630.29807259 1971.1184082 641.03759766 C1966.09053396 652.43962084 1960.9493725 663.77405169 1955.6184082 675.03759766 C1950.37609619 686.11609613 1945.31325442 697.26072915 1940.3684082 708.47509766 C1932.61015165 726.06435046 1924.54510357 743.50466064 1916.42674255 760.93011475 C1912.91027834 768.47856711 1909.41685197 776.03750715 1905.9309082 783.60009766 C1905.05974578 785.48950781 1904.18857008 787.37891185 1903.31738281 789.26831055 C1902.58438879 790.85807177 1901.85139638 792.44783374 1901.1184082 794.03759766 C1907.67583396 793.94337452 1914.23295713 793.8358918 1920.79003906 793.72021484 C1923.00939303 793.68250388 1925.22879625 793.64756407 1927.44824219 793.61572266 C1947.45353175 793.32546228 1967.54521187 792.85720183 1987.1184082 788.35009766 C1988.28791016 788.0888208 1989.45741211 787.82754395 1990.66235352 787.55834961 C2015.25278014 781.91483668 2039.92658415 774.0042235 2062.21313477 762.05126953 C2064.19800209 760.99525094 2066.19855532 759.97513455 2068.2043457 758.95947266 C2090.3834959 747.63159213 2111.53436242 733.6417164 2130.1184082 717.03759766 C2130.63773926 716.57466309 2131.15707031 716.11172852 2131.69213867 715.63476562 C2141.04787196 707.25714488 2149.96911866 698.71821698 2157.8215332 688.88916016 C2159.32245186 687.02577474 2160.85289644 685.18569123 2162.4152832 683.37353516 C2202.59733053 636.7571077 2220.92578364 579.22850846 2228.1184082 519.03759766 C2237.3584082 519.03759766 2246.5984082 519.03759766 2256.1184082 519.03759766 C2255.89054362 524.50634766 2255.66267904 529.97509766 2255.43481445 535.44384766 C2255.39072952 536.53322128 2255.34664459 537.62259491 2255.30122375 538.74497986 C2255.17294412 541.8417052 2255.02673762 544.93720878 2254.87466431 548.03285217 C2254.1245324 563.81889378 2253.95500031 579.57548363 2253.95043945 595.37744141 C2253.94803041 597.38953793 2253.94561826 599.40163445 2253.94297904 601.41373068 C2253.93491264 607.74400398 2253.9323866 614.07426316 2253.93310547 620.40454102 C2253.933632 626.05919281 2253.92671502 631.7137743 2253.91259766 637.3684082 C2253.79534779 685.50080216 2254.16411221 733.66664472 2258.1809082 781.66259766 C2258.35720437 783.8773489 2258.53232143 786.0921943 2258.70629883 788.30712891 C2259.03042283 792.42374533 2259.35961686 796.5398952 2259.69311523 800.65576172 C2260.23749153 807.44535632 2260.69600146 814.23938218 2261.1184082 821.03759766 C2260.22798828 821.0125415 2259.33756836 820.98748535 2258.42016602 820.96166992 C2215.30023295 819.75538405 2172.19185259 818.84602568 2129.0559082 818.47509766 C2127.28551052 818.45958736 2127.28551052 818.45958736 2125.47934723 818.44376373 C2042.66761084 817.71972385 1959.86482578 818.0043021 1877.05258942 818.44376373 C1872.18250133 818.46957427 1867.31241008 818.49471962 1862.44231761 818.51968694 C1822.75645417 818.72367259 1783.07170733 818.97964482 1743.38832474 819.47973752 C1740.96241643 819.50986263 1738.53649507 819.53856374 1736.11056519 819.56689262 C1732.33814448 819.61129623 1728.56580807 819.66020477 1724.79349136 819.71268916 C1722.78902698 819.73976996 1720.78451265 819.763074 1718.77999878 819.78620338 C1711.83905848 819.88944686 1704.96623892 820.20614122 1698.05082417 820.81818962 C1692.9343258 821.20101418 1687.82065541 821.16049766 1682.69262695 821.13525391 C1681.57902298 821.13383896 1680.46541901 821.13242401 1679.31806946 821.13096619 C1675.8139866 821.1254363 1672.30997126 821.11289767 1668.8059082 821.10009766 C1666.40812268 821.09507357 1664.01033614 821.09051227 1661.61254883 821.08642578 C1655.78114617 821.07548999 1649.94978201 821.05882365 1644.1184082 821.03759766 C1644.1184082 820.37759766 1644.1184082 819.71759766 1644.1184082 819.03759766 C1643.49724908 819.03870796 1642.87608995 819.03981827 1642.23610783 819.04096222 C1610.76741395 819.09427981 1579.30114312 819.05912933 1547.83325195 818.81884766 C1546.36420316 818.80774629 1544.89515434 818.79664809 1543.4261055 818.78555298 C1530.76617668 818.68949206 1518.1062936 818.58775155 1505.44643408 818.48297888 C1414.85417479 817.73432694 1324.28207249 818.08378796 1233.69064754 818.87181962 C1224.28613818 818.9533539 1214.88160516 819.03151059 1205.47705078 819.10766602 C1192.20085769 819.21517726 1178.92469201 819.32557156 1165.6485424 819.4383564 C1160.69992743 819.4803586 1155.75130602 819.52137943 1150.80267525 819.56147575 C1123.10419097 819.78715327 1095.41206888 820.12016914 1067.71864414 820.70918941 C1053.18174673 821.01075227 1038.65879228 821.07639107 1024.1184082 821.03759766 C1024.1184082 813.11759766 1024.1184082 805.19759766 1024.1184082 797.03759766 C1029.6871582 796.41884766 1029.6871582 796.41884766 1035.3684082 795.78759766 C1066.81082114 792.93431271 1066.81082114 792.93431271 1092.3684082 776.41259766 C1106.95182902 755.04243252 1105.42007111 724.64011981 1105.37910461 699.92782593 C1105.38213019 697.32237025 1105.3860217 694.71691547 1105.39069718 692.11146224 C1105.39940008 686.47692757 1105.40079255 680.84242926 1105.39719391 675.20788956 C1105.39185644 666.82840358 1105.39801263 658.44895243 1105.40627684 650.06947023 C1105.42147239 634.22799016 1105.42322647 618.38652613 1105.42075381 602.54504029 C1105.41891711 590.30647983 1105.42068867 578.06792459 1105.42497826 565.82936478 C1105.42558067 564.06751031 1105.42618187 562.30565584 1105.42678186 560.54380137 C1105.42768917 557.88844375 1105.42859784 555.23308613 1105.42951421 552.57772852 C1105.43793717 527.90671977 1105.44228401 503.23571298 1105.43810749 478.56470299 C1105.43795111 477.63572007 1105.43779474 476.70673715 1105.43763362 475.74960323 C1105.43682791 471.04176885 1105.43598214 466.33393448 1105.43512032 461.62610011 C1105.43494923 460.69120663 1105.43477815 459.75631315 1105.43460187 458.79308957 C1105.43425522 456.90251003 1105.43390669 455.01193049 1105.43355629 453.12135095 C1105.42820094 423.71402679 1105.43612691 394.30673263 1105.45458984 364.89941406 C1105.4753374 331.81490591 1105.48602727 298.73041634 1105.48201436 265.64590132 C1105.48161905 262.11350926 1105.4812575 258.5811172 1105.48091698 255.04872513 C1105.48082625 254.17904311 1105.48073551 253.30936109 1105.48064203 252.41332506 C1105.47947938 239.32351964 1105.48609905 226.23373306 1105.4967289 213.14393234 C1105.50881655 198.2442991 1105.510299 183.34470719 1105.49793873 168.44507329 C1105.49134265 160.12294698 1105.49286543 151.80091972 1105.50652724 143.47880147 C1105.51582339 137.24014977 1105.50917571 131.00160532 1105.49667945 124.76296134 C1105.49404695 122.25771753 1105.49635289 119.75246196 1105.50441531 117.24722974 C1106.22884824 78.09380674 1106.22884824 78.09380674 1091.1184082 43.03759766 C1086.18518409 38.21628033 1079.92927439 33.65413832 1073.1184082 32.03759766 C1059.78902964 32.82944193 1046.77468338 43.60172006 1038.1184082 53.03759766 C1004.19077983 92.70486241 1012.98211788 167.84019709 1012.94711769 217.02942908 C1012.94312089 221.09702903 1012.93349233 225.16461668 1012.92456055 229.23220825 C1012.90980975 236.24443233 1012.89818298 243.25665551 1012.88861275 250.26888847 C1012.87454889 260.44370792 1012.8533382 270.61850409 1012.83018421 280.79330648 C1012.79249193 297.36081542 1012.75747874 313.92832849 1012.72558594 330.49584961 C1012.72368545 331.48208791 1012.72178495 332.46832621 1012.71982687 333.48445053 C1012.69299985 347.47672759 1012.66910689 361.4690081 1012.64644187 375.46129245 C1012.64484457 376.44722756 1012.64324727 377.43316268 1012.64160156 378.44897461 C1012.63921136 379.92602149 1012.63921136 379.92602149 1012.63677288 381.43290769 C1012.60985347 397.94813558 1012.57540375 414.46333787 1012.53494781 430.9785381 C1012.51042614 441.10784536 1012.49196033 451.23712544 1012.4817922 461.36645747 C1012.47430805 468.32234066 1012.45964595 475.27818699 1012.43972797 482.23404556 C1012.42852882 486.22220065 1012.42018977 490.21029693 1012.42073631 494.19846916 C1012.42093373 522.05381338 1011.29872593 549.82783795 1008.3059082 577.53759766 C1008.22226013 578.32991791 1008.13861206 579.12223816 1008.0524292 579.93856812 C1005.29235879 605.96680825 1001.69359186 631.66330768 995.1184082 657.03759766 C994.77688721 658.39401367 994.77688721 658.39401367 994.4284668 659.77783203 C989.19087224 680.39397651 981.27218793 700.34599707 971.1184082 719.03759766 C970.79662598 719.63572266 970.47484375 720.23384766 970.14331055 720.85009766 C963.23969805 733.59311585 955.17626068 745.14222589 945.6965332 756.06494141 C943.9379222 758.09267319 942.22089325 760.12809706 940.5246582 762.20556641 C938.55974304 764.51816948 936.67870576 766.46760356 934.3684082 768.41259766 C932.28821145 770.17807829 930.22599633 771.93670588 928.2355957 773.80322266 C872.14308275 826.15623474 790.68071215 837.30799057 717.1809082 837.22509766 C716.1003717 837.22416107 715.01983521 837.22322449 713.90655518 837.22225952 C697.22404928 837.19100965 680.71576765 836.86841749 664.1184082 835.03759766 C663.42154907 834.9621875 662.72468994 834.88677734 662.00671387 834.80908203 C595.50545649 827.58264819 526.33886771 812.73770868 476.69946289 764.56738281 C475.09505962 763.01500621 473.47083312 761.48542092 471.8449707 759.95556641 C420.91141933 711.34095323 409.1139524 637.07573594 404.4309082 570.10009766 C404.37015106 569.23922546 404.30939392 568.37835327 404.24679565 567.49139404 C402.32890251 539.89022361 401.96254873 512.34919145 401.94711769 484.69456697 C401.94316553 479.58340033 401.93353249 474.47224384 401.92456055 469.36108398 C401.90972997 460.53055915 401.89813768 451.70003509 401.88861275 442.86950302 C401.87463548 430.07639504 401.85343454 417.28330611 401.83018421 404.49021198 C401.79239696 383.69237235 401.75740163 362.89452931 401.72558594 342.09667969 C401.72368545 340.85563874 401.72178495 339.6145978 401.71982687 338.33594956 C401.69298433 320.71741626 401.66910251 303.0988802 401.64644187 285.48034109 C401.64484457 284.23869377 401.64324727 282.99704644 401.64160156 281.71777344 C401.63921136 279.85760597 401.63921136 279.85760597 401.63677288 277.95985936 C401.60994011 257.2299585 401.57552161 236.50007838 401.53494781 215.77019989 C401.51029068 203.01950787 401.49189866 190.26883803 401.4817922 177.51812603 C401.47436113 168.77561263 401.45977508 160.03312918 401.43972797 151.29063569 C401.42842234 146.2607585 401.42019694 141.2309294 401.42073631 136.20103836 C404.04940386 85.55659398 404.04940386 85.55659398 385.1184082 41.03759766 C377.94537406 34.89550567 367.55337821 30.01312696 358.1184082 29.03759766 C346.89372642 31.12528002 334.56525451 35.63862347 327.55981445 45.15478516 C313.1988495 67.57364816 314.96141444 97.80634041 315.00488281 123.40820312 C315.0051632 125.76511414 315.00499912 128.12202524 315.00443172 130.4789362 C315.00416818 136.25169922 315.00852597 142.02444557 315.01486231 147.79720482 C315.02218765 154.72046212 315.02360106 161.64371752 315.02478531 168.56697815 C315.02711492 181.35104161 315.03395479 194.13509881 315.04324341 206.91915894 C315.05588927 224.40915522 315.06189913 241.89914944 315.06617677 259.38914955 C315.06818273 267.55518403 315.07051041 275.72121843 315.07292175 283.88725281 C315.07316277 284.70471089 315.07340378 285.52216898 315.0736521 286.36439852 C315.07945916 305.80738652 315.08841375 325.25037287 315.09790039 344.69335938 C315.09831404 345.54355103 315.09872768 346.39374268 315.09915386 347.26969771 C315.10628399 361.91500675 315.11363357 376.56031567 315.12101173 391.20562458 C315.12706273 403.22139291 315.13304475 415.23716127 315.13891602 427.25292969 C315.13933061 428.09899947 315.13974519 428.94506926 315.14017235 429.81677753 C315.14964316 449.17948698 315.15819033 468.54219626 315.16389465 487.90490723 C315.16413565 488.72169993 315.16437664 489.53849263 315.16462494 490.38003662 C315.16701215 498.54154134 315.16923993 506.70304608 315.17123118 514.8645509 C315.17552393 532.31671741 315.18253381 549.76887652 315.19527903 567.22103903 C315.20454183 579.96448306 315.21023737 592.7079246 315.21239638 605.45137185 C315.21367217 612.33411838 315.21665068 619.21685313 315.22415543 626.09959602 C315.30291677 700.99484154 315.30291677 700.99484154 312.7434082 738.28759766 C312.67804871 739.26911804 312.61268921 740.25063843 312.54534912 741.26190186 C308.46065234 802.38484727 299.05093244 864.07613537 261.1184082 914.03759766 C260.45325195 914.91544922 259.7880957 915.79330078 259.1027832 916.69775391 C246.4666428 932.9038608 231.47721962 948.59163708 215.1184082 961.03759766 C214.53124023 961.49054199 213.94407227 961.94348633 213.33911133 962.41015625 C138.26424191 1020.27878021 44.16024 1039.18810882 -59.8815918 1039.03759766 C-59.8815918 1030.45759766 -59.8815918 1021.87759766 -59.8815918 1013.03759766 C-56.8084668 1012.50134766 -53.7353418 1011.96509766 -50.5690918 1011.41259766 C-23.74103284 1006.45651993 5.92451951 995.93946107 24.77856445 975.28759766 C26.1184082 974.03759766 26.1184082 974.03759766 28.1184082 974.03759766 C28.35688477 973.48974609 28.59536133 972.94189453 28.84106445 972.37744141 C30.42926824 969.4681629 32.43802733 967.15172053 34.5559082 964.60009766 C78.92913175 908.52565995 77.29611944 819.06166203 77.25212097 751.46742249 C77.25344603 748.69220855 77.25625819 745.91699652 77.25898629 743.14178365 C77.26408325 737.16105508 77.26556758 731.18033457 77.26453018 725.19960403 C77.26299124 716.30529824 77.26719751 707.41100123 77.27240481 698.51669715 C77.28202607 681.70124503 77.28488704 664.88579597 77.28546187 648.07034142 C77.28592301 635.08018779 77.28798965 622.09003536 77.29116249 609.09988213 C77.29206014 605.34853202 77.29294996 601.59718192 77.29383737 597.84583181 C77.29405842 596.91301976 77.29427946 595.98020772 77.29450721 595.01912864 C77.30065242 568.81842964 77.30460867 542.61773104 77.30416393 516.41703129 C77.30414835 515.43123774 77.30413278 514.44544419 77.30411672 513.42977811 C77.30403363 508.43435227 77.30393459 503.43892643 77.30383202 498.44350059 C77.30381207 497.45154183 77.30379213 496.45958308 77.30377158 495.43756497 C77.30373114 493.43158998 77.30368934 491.42561499 77.30364619 489.41964001 C77.30303334 458.2051297 77.31054544 426.99063025 77.32421875 395.77612305 C77.3396044 360.63878829 77.34818356 325.50146067 77.34725553 290.36412233 C77.34718091 286.61245787 77.34713219 282.86079341 77.34710121 279.10912895 C77.34708956 278.18549518 77.3470779 277.26186141 77.3470659 276.31023874 C77.34703523 261.50035742 77.353398 246.69048561 77.36203348 231.8806071 C77.37054111 216.98129391 77.37147559 202.08199449 77.36492416 187.1826802 C77.36124988 178.35237513 77.36299686 169.52211216 77.3728665 160.69181162 C77.37892046 154.77099664 77.3775118 148.85021174 77.370396 142.92939807 C77.36655966 139.57109885 77.36675007 136.21294518 77.37385335 132.85464204 C79.48176547 84.62148174 79.48176547 84.62148174 61.1184082 42.03759766 C43.88408347 26.09394922 17.10524385 26.09124808 -4.8815918 24.03759766 C-4.91046416 20.2251134 -4.92834671 16.41265696 -4.9440918 12.60009766 C-4.9524707 11.51148438 -4.96084961 10.42287109 -4.96948242 9.30126953 C-4.97270508 8.26679687 -4.97592773 7.23232422 -4.97924805 6.16650391 C-4.98448486 5.2081665 -4.98972168 4.2498291 -4.99511719 3.26245117 C-4.79769528 -0.60659356 -4.07842738 0.03950423 0 0 Z " fill="#ffffff" transform="translate(2547.881591796875,698.96240234375)"/>
</svg>
