<?xml version="1.0" standalone="no"?>
<!DOCTYPE svg PUBLIC "-//W3C//DTD SVG 20010904//EN"
 "http://www.w3.org/TR/2001/REC-SVG-20010904/DTD/svg10.dtd">
<svg version="1.0" xmlns="http://www.w3.org/2000/svg"
 width="1004.000000pt" height="376.000000pt" viewBox="0 0 1004.000000 376.000000"
 preserveAspectRatio="xMidYMid meet">

<g transform="translate(0.000000,376.000000) scale(0.100000,-0.100000)"
fill="#ffffff" stroke="none">
<path d="M2722 3545 c-24 -10 -38 -26 -49 -55 -9 -22 -23 -42 -32 -44 -19 -6
-140 -29 -906 -171 -314 -58 -592 -110 -619 -115 -27 -6 -50 -9 -51 -8 -1 2
-10 19 -20 38 -35 70 -91 111 -170 124 -82 14 -187 -40 -225 -114 -48 -94 -34
-185 39 -261 l46 -48 -157 -338 c-87 -186 -173 -373 -192 -415 -26 -58 -39
-76 -50 -72 -24 9 -84 -15 -106 -43 -24 -31 -27 -99 -4 -131 32 -46 87 -60
145 -37 11 4 192 -180 670 -682 359 -378 682 -718 716 -754 l63 -65 -20 -39
c-41 -81 -10 -180 70 -222 55 -29 105 -29 161 0 75 39 112 150 74 217 -8 14
-14 28 -15 32 0 4 276 265 613 580 336 314 680 636 764 715 83 79 156 143 161
143 5 0 15 -7 23 -16 29 -35 130 -76 204 -81 93 -7 160 9 235 57 73 48 124
115 150 199 26 81 25 144 -1 224 -39 118 -132 210 -247 243 -74 22 -188 14
-260 -16 -29 -13 -54 -21 -55 -19 -6 8 -624 758 -724 879 -81 97 -103 130 -97
145 24 74 13 113 -39 145 -38 23 -51 24 -95 5z m78 -75 c22 -40 -26 -80 -58
-48 -13 13 -16 50 -5 61 14 14 53 6 63 -13z m-155 -73 c-11 -8 -205 -125 -432
-261 l-412 -248 -208 50 c-114 27 -279 67 -366 87 l-157 37 0 28 c0 26 4 29
53 39 64 13 180 34 837 156 283 53 544 102 580 109 36 8 78 14 95 15 28 1 28
0 10 -12z m-27 -104 c-35 -43 -142 -174 -237 -291 -95 -117 -178 -211 -185
-209 -6 2 -74 19 -151 37 -77 18 -146 36 -154 40 -11 6 -4 14 25 33 112 74
750 467 757 467 5 0 -20 -35 -55 -77z m116 61 c14 -5 16 -39 16 -280 l0 -273
-42 -12 c-27 -7 -57 -25 -80 -50 l-37 -38 -155 37 c-86 20 -155 40 -153 43 2
6 431 578 434 578 1 1 8 -2 17 -5z m215 -164 c73 -94 250 -322 393 -508 143
-185 265 -342 270 -349 7 -8 1 -25 -19 -52 -15 -22 -31 -40 -34 -38 -4 1 -143
69 -310 152 l-304 149 0 62 c0 53 -4 68 -30 104 -30 42 -56 62 -107 80 l-28
10 0 274 c0 253 1 275 18 279 9 3 18 5 18 6 1 0 61 -76 133 -169z m-2038 -29
c64 -65 19 -166 -73 -163 -45 1 -88 49 -88 98 0 50 45 94 95 94 27 0 44 -8 66
-29z m644 -262 c88 -23 163 -44 167 -48 4 -4 -130 -89 -298 -190 -168 -101
-307 -181 -308 -180 -2 2 -38 96 -80 207 l-77 204 44 47 c25 26 47 57 51 68 6
19 11 19 174 -24 92 -24 239 -62 327 -84z m-684 -38 c17 -19 171 -423 163
-431 -20 -19 -646 -391 -651 -387 -2 3 82 192 188 421 l193 416 50 -6 c28 -4
54 -9 57 -13z m1113 -72 c89 -23 165 -45 169 -49 5 -4 -49 -79 -121 -166 -93
-115 -135 -158 -148 -157 -72 10 -150 -43 -160 -108 -5 -29 -12 -40 -28 -44
-399 -86 -457 -97 -461 -93 -15 15 -93 244 -85 252 20 20 646 406 659 406 8 0
87 -19 175 -41z m434 -115 l152 -39 0 -32 c0 -18 -1 -36 -1 -40 -2 -13 -594
-222 -597 -212 -7 17 262 369 278 366 8 -2 84 -21 168 -43z m385 14 c34 -18
46 -39 47 -81 0 -53 -35 -87 -90 -87 -30 0 -47 6 -65 25 -71 70 20 190 108
143z m-189 -194 c33 -41 96 -73 144 -74 42 0 100 24 133 56 l25 24 310 -151
c170 -83 310 -152 311 -152 1 -1 -6 -32 -14 -70 -12 -54 -19 -68 -37 -71 -11
-3 -142 -7 -291 -11 -560 -12 -1055 -25 -1182 -31 l-133 -6 0 70 c0 69 0 70
34 90 44 26 66 60 73 111 l5 39 292 105 c160 58 293 105 296 106 3 1 18 -15
34 -35z m-1498 -234 c38 -93 41 -106 26 -111 -30 -11 -643 -140 -651 -137 -11
4 562 359 573 355 5 -2 28 -50 52 -107z m786 73 c22 -20 24 -76 2 -97 -50 -50
-137 -8 -120 59 13 53 79 74 118 38z m2096 -102 c124 -89 137 -243 27 -339
-48 -43 -78 -54 -142 -53 -63 0 -118 26 -161 75 -84 96 -63 237 48 316 58 41
172 42 228 1z m-2256 -22 c10 -17 35 -38 57 -47 43 -19 51 -33 51 -103 l0 -47
-212 -7 c-117 -4 -242 -5 -278 -3 l-64 3 -24 63 c-13 35 -22 65 -20 67 3 3
437 100 468 104 3 1 13 -13 22 -30z m-545 -153 c13 -32 23 -60 21 -61 -2 -2
-156 -5 -343 -8 -187 -3 -333 -4 -325 -1 39 12 597 132 609 131 8 -1 25 -28
38 -61z m2328 -94 c7 -29 27 -76 45 -105 l32 -52 -58 -54 c-33 -30 -228 -212
-434 -405 -334 -312 -934 -872 -1015 -948 l-31 -28 -39 20 c-22 11 -45 20 -51
20 -17 0 -21 46 -39 455 -26 573 -44 965 -50 1041 l-5 71 148 7 c81 3 361 11
622 17 261 5 484 12 495 13 11 2 98 3 194 2 l175 -1 11 -53z m-3170 18 c15
-17 16 -24 7 -45 -21 -45 -92 -29 -92 20 0 45 53 61 85 25z m1499 -82 c6 -79
13 -220 36 -733 6 -126 15 -309 20 -405 12 -224 12 -350 1 -350 -5 0 -18 24
-29 52 -58 155 -437 1152 -458 1206 -46 119 -104 280 -104 291 0 7 53 11 163
14 89 1 208 4 264 5 l101 2 6 -82z m-572 -50 c52 -129 303 -753 468 -1158 62
-151 113 -282 113 -290 4 -39 -42 -4 -165 125 -73 77 -353 372 -623 655 -269
283 -529 556 -578 607 -89 91 -90 92 -77 123 10 24 19 30 44 31 105 5 513 16
632 17 l142 2 44 -112z m728 -1566 c27 -33 25 -54 -6 -91 -43 -51 -115 -35
-129 29 -18 80 84 127 135 62z"/>
<path d="M4600 2936 c0 -21 6 -25 62 -35 76 -13 103 -37 117 -103 15 -67 15
-1674 0 -1806 -17 -158 -56 -268 -116 -324 -32 -31 -128 -78 -158 -78 -36 0
-62 -48 -36 -65 14 -8 235 14 309 31 187 43 344 135 433 254 55 73 76 117 102
208 20 75 21 100 27 922 5 626 10 855 19 883 16 48 48 69 102 65 53 -4 79 -36
90 -110 4 -29 8 -297 8 -596 1 -429 4 -563 16 -643 36 -241 110 -353 290 -439
99 -48 188 -69 328 -78 373 -25 612 72 715 289 77 163 91 299 92 894 0 571 6
610 96 666 49 30 80 20 105 -36 19 -43 19 -69 17 -857 -3 -874 -1 -840 -54
-868 -11 -7 -45 -15 -75 -18 -49 -6 -54 -9 -54 -32 l0 -25 1459 -3 1459 -2 -8
77 c-4 43 -9 202 -10 353 l-2 275 -26 3 c-15 2 -27 1 -27 -3 0 -26 -35 -163
-54 -211 -69 -177 -218 -321 -410 -395 -68 -27 -99 -32 -193 -37 -79 -3 -113
-1 -113 6 0 6 185 417 410 912 226 495 410 912 410 925 l0 25 -712 -2 -713 -3
2 -35 c0 -19 4 -163 7 -320 l5 -285 26 -3 c15 -2 27 2 29 10 2 7 11 47 21 88
29 127 86 231 173 320 86 86 161 128 278 156 78 18 269 25 269 9 0 -6 -160
-362 -355 -793 l-355 -783 -7 63 c-4 35 -5 134 -2 221 l7 157 -30 0 c-29 0
-31 -3 -48 -67 -62 -232 -228 -474 -390 -569 -46 -27 -59 -29 -168 -33 -136
-4 -159 5 -177 66 -8 27 -10 282 -8 843 3 790 3 806 23 840 22 37 58 53 148
65 41 5 47 9 47 31 l0 24 -670 0 -670 0 0 -25 c0 -19 7 -26 28 -31 134 -29
181 -58 216 -134 20 -44 21 -61 24 -575 3 -455 1 -544 -13 -630 -51 -309 -190
-445 -457 -445 -186 0 -280 71 -325 243 -17 67 -18 123 -18 747 0 723 1 732
50 764 23 15 134 38 146 30 12 -7 31 25 25 41 -5 13 -108 15 -871 15 l-865 0
0 -24z"/>
</g>
</svg>
